# Blender v2.76 (sub 0) OBJ File: ''
# www.blender.org
mtllib fancy_button.mtl
o button_Grid.002
v 0.275403 0.275403 0.000000
v 0.400000 0.200000 0.000000
v 0.600000 0.200000 0.000000
v 0.724597 0.275403 0.000000
v 0.200000 0.400000 0.000000
v 0.400000 0.400000 0.000000
v 0.600000 0.400000 0.000000
v 0.800000 0.400000 0.000000
v 0.200000 0.600000 -0.000000
v 0.400000 0.600000 -0.000000
v 0.600000 0.600000 -0.000000
v 0.800000 0.600000 -0.000000
v 0.275403 0.724597 -0.000000
v 0.400000 0.800000 -0.000000
v 0.600000 0.800000 -0.000000
v 0.724597 0.724597 -0.000000
v 0.275403 0.275403 0.000000
v 0.400000 0.200000 0.000000
v 0.600000 0.200000 0.000000
v 0.724597 0.275403 0.000000
v 0.200000 0.400000 0.000000
v 0.800000 0.400000 0.000000
v 0.200000 0.600000 -0.000000
v 0.800000 0.600000 -0.000000
v 0.275403 0.724597 -0.000000
v 0.400000 0.800000 -0.000000
v 0.600000 0.800000 -0.000000
v 0.724597 0.724597 -0.000000
v 0.275403 0.275403 0.050000
v 0.400000 0.200000 0.050000
v 0.600000 0.200000 0.050000
v 0.724597 0.275403 0.050000
v 0.200000 0.400000 0.050000
v 0.400000 0.400000 0.050000
v 0.600000 0.400000 0.050000
v 0.800000 0.400000 0.050000
v 0.200000 0.600000 0.050000
v 0.400000 0.600000 0.050000
v 0.600000 0.600000 0.050000
v 0.800000 0.600000 0.050000
v 0.275403 0.724597 0.050000
v 0.400000 0.800000 0.050000
v 0.600000 0.800000 0.050000
v 0.724597 0.724597 0.050000
vt 0.157888 0.127840
vt 0.039929 0.322755
vt 0.352802 0.322755
vt 0.352802 0.009881
vt 0.665676 0.322755
vt 0.665676 0.009881
vt 0.978549 0.322755
vt 0.860591 0.127840
vt 0.039929 0.635628
vt 0.352802 0.635628
vt 0.665676 0.635628
vt 0.978549 0.635628
vt 0.157888 0.830543
vt 0.352802 0.948502
vt 0.665676 0.948502
vt 0.860591 0.830543
vt 0.334170 0.946533
vt 0.021296 0.946533
vt 0.021296 0.993464
vt 0.334170 0.993464
vt 0.998395 0.946533
vt 0.803480 0.946533
vt 0.803480 0.993464
vt 0.998395 0.993464
vt 0.490606 0.946533
vt 0.295691 0.946533
vt 0.295691 0.993464
vt 0.490606 0.993464
vt 0.529084 0.946533
vt 0.529084 0.993464
vt -0.173619 0.946533
vt -0.173619 0.993464
vt 0.000000 0.416667
vt 0.000000 0.583333
vt -0.062836 0.687164
vn -0.000000 -0.000000 -1.000000
vn -1.000000 0.000000 0.000000
vn 0.517800 0.855500 0.000000
vn -0.517800 0.855500 0.000000
vn 0.855500 0.517800 0.000000
vn 1.000000 -0.000000 0.000000
vn 0.855500 -0.517800 0.000000
vn -0.517800 -0.855500 0.000000
vn 0.000000 -1.000000 0.000000
vn 0.000000 1.000000 0.000000
vn 0.000000 0.000000 1.000000
vn -0.855500 -0.517800 0.000000
vn -0.855500 0.517800 0.000000
vn 0.517800 -0.855500 0.000000
usemtl None
s off
f 1/1/1 5/2/1 6/3/1 2/4/1
f 2/4/1 6/3/1 7/5/1 3/6/1
f 3/6/1 7/5/1 8/7/1 4/8/1
f 5/2/1 9/9/1 10/10/1 6/3/1
f 6/3/1 10/10/1 11/11/1 7/5/1
f 7/5/1 11/11/1 12/12/1 8/7/1
f 9/9/1 13/13/1 14/14/1 10/10/1
f 10/10/1 14/14/1 15/15/1 11/11/1
f 11/11/1 15/15/1 16/16/1 12/12/1
f 23/17/2 21/18/2 33/19/2 37/20/2
f 28/21/3 27/22/3 43/23/3 44/24/3
f 26/25/4 25/26/4 41/27/4 42/28/4
f 24/17/5 28/29/5 44/30/5 40/20/5
f 22/18/6 24/17/6 40/20/6 36/19/6
f 20/31/7 22/18/7 36/19/7 32/32/7
f 17/26/8 18/25/8 30/28/8 29/27/8
f 18/25/9 19/22/9 31/23/9 30/28/9
f 27/22/10 26/25/10 42/28/10 43/23/10
f 1/1/11 2/4/11 18/4/11 17/1/11
f 4/8/11 8/7/11 22/7/11 20/8/11
f 8/33/11 12/34/11 24/34/11 22/33/11
f 12/34/11 16/35/11 28/35/11 24/34/11
f 14/14/11 13/13/11 25/13/11 26/14/11
f 16/16/11 15/15/11 27/15/11 28/16/11
f 9/9/11 5/2/11 21/2/11 23/9/11
f 5/2/11 1/1/11 17/1/11 21/2/11
f 13/13/11 9/9/11 23/9/11 25/13/11
f 3/6/11 4/8/11 20/8/11 19/6/11
f 15/15/11 14/14/11 26/14/11 27/15/11
f 2/4/11 3/6/11 19/6/11 18/4/11
f 29/1/11 30/4/11 34/3/11 33/2/11
f 30/4/11 31/6/11 35/5/11 34/3/11
f 31/6/11 32/8/11 36/7/11 35/5/11
f 33/2/11 34/3/11 38/10/11 37/9/11
f 34/3/11 35/5/11 39/11/11 38/10/11
f 35/5/11 36/7/11 40/12/11 39/11/11
f 37/9/11 38/10/11 42/14/11 41/13/11
f 38/10/11 39/11/11 43/15/11 42/14/11
f 39/11/11 40/12/11 44/16/11 43/15/11
f 21/18/12 17/31/12 29/32/12 33/19/12
f 25/29/13 23/17/13 37/20/13 41/30/13
f 19/22/14 20/21/14 32/24/14 31/23/14
