# Blender v2.76 (sub 0) OBJ File: 'knife_switch.blend'
# www.blender.org
o handle_Grid.006
v 0.336505 0.703276 0.114377
v 0.346181 0.703276 0.114377
v 0.653819 0.703276 0.114377
v 0.663495 0.703276 0.114377
v 0.336505 0.703276 0.064377
v 0.346181 0.703276 0.064377
v 0.653819 0.703276 0.064377
v 0.663495 0.703276 0.064377
v 0.336505 0.712482 0.064377
v 0.336505 0.712482 0.114377
v 0.346181 0.724050 0.114377
v 0.346181 0.724050 0.064377
v 0.653819 0.724050 0.114377
v 0.653819 0.724050 0.064377
v 0.663495 0.712482 0.114377
v 0.663495 0.712482 0.064377
v 0.336505 0.533157 0.064377
v 0.336505 0.533157 0.114377
v 0.346181 0.533157 0.114377
v 0.346181 0.533157 0.064377
v 0.653819 0.533157 0.114377
v 0.653819 0.533157 0.064377
v 0.663495 0.533157 0.114377
v 0.663495 0.533157 0.064377
v 0.336505 0.495751 0.064377
v 0.336505 0.495751 0.114377
v 0.346181 0.495751 0.114377
v 0.346181 0.495751 0.064377
v 0.653819 0.495751 0.114377
v 0.653819 0.495751 0.064377
v 0.663495 0.495751 0.114377
v 0.663495 0.495751 0.064377
v 0.301853 0.533157 0.064377
v 0.301853 0.533157 0.114377
v 0.380832 0.533157 0.114377
v 0.380832 0.533157 0.064377
v 0.619168 0.533157 0.114377
v 0.619168 0.533157 0.064377
v 0.698147 0.533157 0.114377
v 0.698147 0.533157 0.064377
v 0.301853 0.495751 0.064377
v 0.301853 0.495751 0.114377
v 0.380832 0.495751 0.114377
v 0.380832 0.495751 0.064377
v 0.619168 0.495751 0.114377
v 0.619168 0.495751 0.064377
v 0.698147 0.495751 0.114377
v 0.698147 0.495751 0.064377
v 0.484239 0.764554 0.114377
v 0.484239 0.764554 0.064377
v 0.515761 0.764554 0.114377
v 0.515761 0.764554 0.064377
v 0.484239 0.806436 0.114377
v 0.484239 0.806436 0.064377
v 0.515761 0.806436 0.114377
v 0.515761 0.806436 0.064377
v 0.474727 0.847872 0.129465
v 0.474727 0.847872 0.049288
v 0.525273 0.847872 0.129465
v 0.525273 0.847872 0.049288
v 0.474727 0.901950 0.129465
v 0.474727 0.901950 0.049288
v 0.525273 0.901950 0.129465
v 0.525273 0.901950 0.049288
v 0.488625 0.944572 0.107419
v 0.488625 0.944572 0.071334
v 0.511375 0.944572 0.107419
v 0.511375 0.944572 0.071334
vt 0.000000 0.000000
vt 1.000000 0.000000
vt 1.000000 1.000000
vt 0.000000 1.000000
vn 1.000000 0.000000 0.000000
vn 0.000000 -1.000000 0.000000
vn -0.767100 0.641600 0.000000
vn 0.281500 0.959600 0.000000
vn 0.767100 0.641600 0.000000
vn 0.000000 0.000000 -1.000000
vn 0.000000 0.000000 1.000000
vn -1.000000 0.000000 0.000000
vn 0.000000 1.000000 0.000000
vn -0.281500 0.959600 0.000000
vn 0.000000 -0.342200 -0.939600
vn 0.000000 -0.342200 0.939600
vn 0.974600 -0.223700 0.000000
vn -0.974600 -0.223700 0.000000
vn -0.950700 0.310000 0.000000
vn 0.000000 0.459400 -0.888200
vn 0.000000 0.459400 0.888200
vn 0.950700 0.310000 0.000000
s off
f 6/1/1 2/2/1 19/3/1 20/4/1
f 2/1/2 6/2/2 7/3/2 3/4/2
f 8/1/1 4/2/1 23/3/1 24/4/1
f 10/1/3 11/2/3 12/3/3 9/4/3
f 13/1/4 14/2/4 52/3/4 51/4/4
f 13/1/5 15/2/5 16/3/5 14/4/5
f 7/1/6 6/2/6 12/3/6 14/4/6
f 2/1/7 3/2/7 13/3/7 11/4/7
f 5/1/8 1/2/8 10/3/8 9/4/8
f 8/1/6 7/2/6 14/3/6 16/4/6
f 3/1/7 4/2/7 15/3/7 13/4/7
f 6/1/6 5/2/6 9/3/6 12/4/6
f 1/1/7 2/2/7 11/3/7 10/4/7
f 4/1/1 8/2/1 16/3/1 15/4/1
f 30/1/2 29/2/2 45/3/2 46/4/2
f 26/1/7 18/2/7 34/3/7 42/4/7
f 1/1/8 5/2/8 17/3/8 18/4/8
f 7/1/6 8/2/6 24/3/6 22/4/6
f 4/1/7 3/2/7 21/3/7 23/4/7
f 3/1/8 7/2/8 22/3/8 21/4/8
f 5/1/6 6/2/6 20/3/6 17/4/6
f 2/1/7 1/2/7 18/3/7 19/4/7
f 26/1/2 25/2/2 28/3/2 27/4/2
f 29/1/2 30/2/2 32/3/2 31/4/2
f 22/1/6 24/2/6 32/3/6 30/4/6
f 23/1/7 21/2/7 29/3/7 31/4/7
f 17/1/6 20/2/6 28/3/6 25/4/6
f 19/1/7 18/2/7 26/3/7 27/4/7
f 21/1/9 22/2/9 38/3/9 37/4/9
f 17/1/6 25/2/6 41/3/6 33/4/6
f 34/1/8 33/2/8 41/3/8 42/4/8
f 36/1/1 35/2/1 43/3/1 44/4/1
f 40/1/1 39/2/1 47/3/1 48/4/1
f 37/1/8 38/2/8 46/3/8 45/4/8
f 32/1/6 24/2/6 40/3/6 48/4/6
f 24/1/9 23/2/9 39/3/9 40/4/9
f 22/1/6 30/2/6 46/3/6 38/4/6
f 31/1/2 32/2/2 48/3/2 47/4/2
f 18/1/9 17/2/9 33/3/9 34/4/9
f 29/1/7 21/2/7 37/3/7 45/4/7
f 25/1/2 26/2/2 42/3/2 41/4/2
f 23/1/7 31/2/7 47/3/7 39/4/7
f 19/1/7 27/2/7 43/3/7 35/4/7
f 20/1/9 19/2/9 35/3/9 36/4/9
f 28/1/6 20/2/6 36/3/6 44/4/6
f 27/1/2 28/2/2 44/3/2 43/4/2
f 51/1/1 52/2/1 56/3/1 55/4/1
f 14/1/6 12/2/6 50/3/6 52/4/6
f 11/1/7 13/2/7 51/3/7 49/4/7
f 12/1/10 11/2/10 49/3/10 50/4/10
f 56/1/11 54/2/11 58/3/11 60/4/11
f 50/1/8 49/2/8 53/3/8 54/4/8
f 52/1/6 50/2/6 54/3/6 56/4/6
f 49/1/7 51/2/7 55/3/7 53/4/7
f 59/1/1 60/2/1 64/3/1 63/4/1
f 53/1/12 55/2/12 59/3/12 57/4/12
f 55/1/13 56/2/13 60/3/13 59/4/13
f 54/1/14 53/2/14 57/3/14 58/4/14
f 62/1/15 61/2/15 65/3/15 66/4/15
f 58/1/8 57/2/8 61/3/8 62/4/8
f 60/1/6 58/2/6 62/3/6 64/4/6
f 57/1/7 59/2/7 63/3/7 61/4/7
f 65/1/9 67/2/9 68/3/9 66/4/9
f 64/1/16 62/2/16 66/3/16 68/4/16
f 61/1/17 63/2/17 67/3/17 65/4/17
f 63/1/18 64/2/18 68/3/18 67/4/18
o plate_Grid.002
v 0.245593 0.100000 -0.000000
v 0.311558 0.100000 -0.000000
v 0.333246 0.100000 -0.000000
v 0.354934 0.100000 -0.000000
v 0.376622 0.100000 -0.000000
v 0.629562 0.100000 -0.000000
v 0.649210 0.100000 -0.000000
v 0.668858 0.100000 -0.000000
v 0.688506 0.100000 -0.000000
v 0.754407 0.100000 -0.000000
v 0.245593 0.483957 -0.000000
v 0.311558 0.483957 -0.000000
v 0.333246 0.483957 -0.000000
v 0.354934 0.483957 -0.000000
v 0.376622 0.483957 -0.000000
v 0.629562 0.483957 -0.000000
v 0.649210 0.483957 -0.000000
v 0.668858 0.483957 -0.000000
v 0.688506 0.483957 -0.000000
v 0.754407 0.483957 -0.000000
v 0.245593 0.541035 -0.000000
v 0.311558 0.541035 -0.000000
v 0.333246 0.541035 -0.000000
v 0.354934 0.541035 -0.000000
v 0.376622 0.541035 -0.000000
v 0.629562 0.541035 -0.000000
v 0.649210 0.541035 -0.000000
v 0.668858 0.541035 -0.000000
v 0.688506 0.541035 -0.000000
v 0.754407 0.541035 -0.000000
v 0.245593 0.900000 -0.000000
v 0.311558 0.900000 -0.000000
v 0.333246 0.900000 -0.000000
v 0.354934 0.900000 -0.000000
v 0.376622 0.900000 -0.000000
v 0.629562 0.900000 -0.000000
v 0.649210 0.900000 -0.000000
v 0.668858 0.900000 -0.000000
v 0.688506 0.900000 -0.000000
v 0.754407 0.900000 -0.000000
v 0.245593 0.483957 0.029345
v 0.245593 0.100000 0.029345
v 0.311558 0.100000 0.029345
v 0.311558 0.483957 0.029345
v 0.333246 0.100000 0.029345
v 0.333246 0.483957 0.029345
v 0.354934 0.100000 0.029345
v 0.354934 0.483957 0.029345
v 0.376622 0.100000 0.029345
v 0.376622 0.483957 0.029345
v 0.629562 0.100000 0.029345
v 0.629562 0.483957 0.029345
v 0.649210 0.100000 0.029345
v 0.649210 0.483957 0.029345
v 0.668858 0.100000 0.029345
v 0.668858 0.483957 0.029345
v 0.688506 0.100000 0.029345
v 0.688506 0.483957 0.029345
v 0.754407 0.100000 0.029345
v 0.754407 0.483957 0.029345
v 0.245593 0.541035 0.029345
v 0.311558 0.541035 0.029345
v 0.333246 0.541035 0.029345
v 0.354934 0.541035 0.029345
v 0.376622 0.541035 0.029345
v 0.629562 0.541035 0.029345
v 0.649210 0.541035 0.029345
v 0.668858 0.541035 0.029345
v 0.688506 0.541035 0.029345
v 0.754407 0.541035 0.029345
v 0.245593 0.900000 0.029345
v 0.311558 0.900000 0.029345
v 0.333246 0.900000 0.029345
v 0.354934 0.900000 0.029345
v 0.376622 0.900000 0.029345
v 0.629562 0.900000 0.029345
v 0.649210 0.900000 0.029345
v 0.668858 0.900000 0.029345
v 0.688506 0.900000 0.029345
v 0.754407 0.900000 0.029345
v 0.333246 0.483957 0.147351
v 0.311558 0.483957 0.147351
v 0.376622 0.483957 0.147351
v 0.354934 0.483957 0.147351
v 0.649210 0.483957 0.147351
v 0.629562 0.483957 0.147351
v 0.688506 0.483957 0.147351
v 0.668858 0.483957 0.147351
v 0.311558 0.541035 0.147351
v 0.333246 0.541035 0.147351
v 0.354934 0.541035 0.147351
v 0.376622 0.541035 0.147351
v 0.629562 0.541035 0.147351
v 0.649210 0.541035 0.147351
v 0.668858 0.541035 0.147351
v 0.688506 0.541035 0.147351
vt 0.750000 0.750000
vt 0.750000 1.949865
vt 1.411118 1.949865
vt 1.411118 0.750000
vt 0.411118 0.750000
vt 0.411118 1.949865
vt 0.478894 1.949865
vt 0.478894 0.750000
vt 0.546670 1.949865
vt 0.546670 0.750000
vt 0.614445 1.949865
vt 0.614445 0.750000
vt 1.404882 1.949865
vt 1.404882 0.750000
vt 0.404882 0.750000
vt 0.404882 1.949865
vt 0.466281 1.949865
vt 0.466281 0.750000
vt 0.527681 1.949865
vt 0.527681 0.750000
vt 0.589080 1.949865
vt 0.589080 0.750000
vt 1.250000 1.949865
vt 1.250000 0.750000
vt 0.750000 0.949865
vt 0.750000 1.128235
vt 1.411118 1.128235
vt 1.411118 0.949865
vt 0.411118 0.949865
vt 0.411118 1.128235
vt 0.478894 1.128235
vt 0.478894 0.949865
vt 0.546670 1.128235
vt 0.546670 0.949865
vt 0.614445 1.128235
vt 0.614445 0.949865
vt 1.404882 1.128235
vt 1.404882 0.949865
vt 0.404882 0.949865
vt 0.404882 1.128235
vt 0.466281 1.128235
vt 0.466281 0.949865
vt 0.527681 1.128235
vt 0.527681 0.949865
vt 0.589080 1.128235
vt 0.589080 0.949865
vt 1.250000 1.128235
vt 1.250000 0.949865
vt 0.750000 0.128235
vt 0.750000 1.250000
vt 1.411118 1.250000
vt 1.411118 0.128235
vt 0.411118 0.128235
vt 0.411118 1.250000
vt 0.478894 1.250000
vt 0.478894 0.128235
vt 0.546670 1.250000
vt 0.546670 0.128235
vt 0.614445 1.250000
vt 0.614445 0.128235
vt 1.404882 1.250000
vt 1.404882 0.128235
vt 0.404882 0.128235
vt 0.404882 1.250000
vt 0.466281 1.250000
vt 0.466281 0.128235
vt 0.527681 1.250000
vt 0.527681 0.128235
vt 0.589080 1.250000
vt 0.589080 0.128235
vt 1.250000 1.250000
vt 1.250000 0.128235
vt 0.426636 0.128235
vt 0.426636 -0.050135
vt 0.131622 -0.050135
vt 0.131622 0.128235
vt 0.614445 0.426636
vt 0.546670 0.426636
vt 0.546670 0.131622
vt 0.614445 0.131622
vt 0.411118 0.426636
vt 0.478894 0.426636
vt 0.478894 0.131622
vt 0.411118 0.131622
vt 0.426636 0.949865
vt 0.426636 1.128235
vt 0.131622 1.128235
vt 0.131622 0.949865
vt 0.478894 0.500000
vt 0.411118 0.500000
vt 0.546670 0.500000
vt 0.466281 0.500000
vt 0.404882 0.500000
vt 0.404882 0.426637
vt 0.466281 0.426637
vt 0.527681 0.500000
vt 0.589080 0.500000
vt 0.589080 0.426636
vt 0.527681 0.426636
vt 0.500000 0.949865
vt 0.500000 -0.250000
vt 0.426636 -0.250000
vt 0.500000 1.128235
vt 0.750000 0.500000
vt 1.411118 0.500000
vt 1.411118 0.426636
vt 0.750000 0.426636
vt 0.500000 0.250000
vt 0.500000 -0.871765
vt 0.426636 -0.871765
vt 0.426637 0.250000
vt 0.614445 0.500000
vt 1.250000 0.500000
vt 1.250000 0.426636
vt 0.500000 0.750000
vt 0.500000 1.949865
vt 0.426636 1.949865
vt 0.426636 0.750000
vt -0.250000 0.500000
vt -0.250000 0.426637
vt 0.500000 0.128235
vt 0.500000 1.250000
vt 0.426637 1.250000
vt -0.385555 0.500000
vt -0.385555 0.426637
vt 1.404882 0.500000
vt 1.404882 0.426636
vt 0.250000 0.500000
vt -0.410920 0.500000
vt -0.410920 0.426637
vt 0.250000 0.426637
vt 0.500000 -0.050135
vt 0.527681 0.131622
vt 0.589080 0.131622
vt 0.404882 0.131622
vt 0.466281 0.131622
vn -0.000000 -0.000000 -1.000000
vn 0.000000 0.000000 1.000000
vn -1.000000 0.000000 0.000000
vn 0.000000 1.000000 0.000000
vn 0.000000 -1.000000 0.000000
vn 1.000000 0.000000 0.000000
s off
f 69/5/19 79/6/19 80/7/19 70/8/19
f 70/9/19 80/10/19 81/11/19 71/12/19
f 71/12/19 81/11/19 82/13/19 72/14/19
f 72/14/19 82/13/19 83/15/19 73/16/19
f 73/16/19 83/15/19 84/17/19 74/18/19
f 74/19/19 84/20/19 85/21/19 75/22/19
f 75/22/19 85/21/19 86/23/19 76/24/19
f 76/24/19 86/23/19 87/25/19 77/26/19
f 77/26/19 87/25/19 88/27/19 78/28/19
f 79/29/19 89/30/19 90/31/19 80/32/19
f 80/33/19 90/34/19 91/35/19 81/36/19
f 81/36/19 91/35/19 92/37/19 82/38/19
f 82/38/19 92/37/19 93/39/19 83/40/19
f 83/40/19 93/39/19 94/41/19 84/42/19
f 84/43/19 94/44/19 95/45/19 85/46/19
f 85/46/19 95/45/19 96/47/19 86/48/19
f 86/48/19 96/47/19 97/49/19 87/50/19
f 87/50/19 97/49/19 98/51/19 88/52/19
f 89/53/19 99/54/19 100/55/19 90/56/19
f 90/57/19 100/58/19 101/59/19 91/60/19
f 91/60/19 101/59/19 102/61/19 92/62/19
f 92/62/19 102/61/19 103/63/19 93/64/19
f 93/64/19 103/63/19 104/65/19 94/66/19
f 94/67/19 104/68/19 105/69/19 95/70/19
f 95/70/19 105/69/19 106/71/19 96/72/19
f 96/72/19 106/71/19 107/73/19 97/74/19
f 97/74/19 107/73/19 108/75/19 98/76/19
f 110/5/20 111/8/20 112/7/20 109/6/20
f 111/9/20 113/12/20 114/11/20 112/10/20
f 113/12/20 115/14/20 116/13/20 114/11/20
f 115/14/20 117/16/20 118/15/20 116/13/20
f 117/16/20 119/18/20 120/17/20 118/15/20
f 119/19/20 121/22/20 122/21/20 120/20/20
f 121/22/20 123/24/20 124/23/20 122/21/20
f 123/24/20 125/26/20 126/25/20 124/23/20
f 125/26/20 127/28/20 128/27/20 126/25/20
f 109/29/20 112/32/20 130/31/20 129/30/20
f 130/77/21 112/78/21 150/79/21 157/80/21
f 114/36/20 116/38/20 132/37/20 131/35/20
f 133/81/22 132/82/22 159/83/22 160/84/22
f 118/40/20 120/42/20 134/41/20 133/39/20
f 112/85/23 114/86/23 149/87/23 150/88/23
f 122/46/20 124/48/20 136/47/20 135/45/20
f 126/89/24 137/90/24 164/91/24 155/92/24
f 126/50/20 128/52/20 138/51/20 137/49/20
f 129/53/20 130/56/20 140/55/20 139/54/20
f 130/57/20 131/60/20 141/59/20 140/58/20
f 131/60/20 132/62/20 142/61/20 141/59/20
f 132/62/20 133/64/20 143/63/20 142/61/20
f 133/64/20 134/66/20 144/65/20 143/63/20
f 134/67/20 135/70/20 145/69/20 144/68/20
f 135/70/20 136/72/20 146/71/20 145/69/20
f 136/72/20 137/74/20 147/73/20 146/71/20
f 137/74/20 138/76/20 148/75/20 147/73/20
f 101/93/22 100/94/22 140/85/22 141/86/22
f 71/93/23 72/95/23 115/82/23 113/86/23
f 105/96/22 104/97/22 144/98/22 145/99/22
f 76/100/23 77/101/23 125/102/23 123/103/23
f 79/104/21 69/105/21 110/106/21 109/89/21
f 88/104/24 98/107/24 138/90/24 128/89/24
f 69/108/23 70/109/23 111/110/23 110/111/23
f 102/95/22 101/93/22 141/86/22 142/82/22
f 74/97/23 75/96/23 121/99/23 119/98/23
f 106/100/22 105/96/22 145/99/22 146/103/22
f 99/112/21 89/113/21 129/114/21 139/115/21
f 72/95/23 73/116/23 117/81/23 115/82/23
f 77/101/23 78/117/23 127/118/23 125/102/23
f 103/116/22 102/95/22 142/82/22 143/81/22
f 107/101/22 106/100/22 146/103/22 147/102/22
f 78/119/24 88/120/24 128/121/24 127/122/24
f 70/94/23 71/93/23 113/86/23 111/85/23
f 75/96/23 76/100/23 123/103/23 121/99/23
f 100/94/22 99/123/22 139/124/22 140/85/22
f 98/125/24 108/126/24 148/127/24 138/77/24
f 104/97/22 103/128/22 143/129/22 144/98/22
f 73/116/23 74/130/23 119/131/23 117/81/23
f 108/132/22 107/133/22 147/134/22 148/135/22
f 89/125/21 79/136/21 109/78/21 129/77/21
f 150/33/20 149/36/20 158/35/20 157/34/20
f 152/38/20 151/40/20 160/39/20 159/37/20
f 154/43/20 153/46/20 162/45/20 161/44/20
f 156/48/20 155/50/20 164/49/20 163/47/20
f 137/102/22 136/103/22 163/137/22 164/138/22
f 134/77/21 120/78/21 154/79/21 161/80/21
f 114/89/24 131/90/24 158/91/24 149/92/24
f 124/103/23 126/102/23 155/138/23 156/137/23
f 122/89/24 135/90/24 162/91/24 153/92/24
f 131/86/22 130/85/22 157/88/22 158/87/22
f 135/99/22 134/98/22 161/139/22 162/140/22
f 120/98/23 122/99/23 153/140/23 154/139/23
f 132/77/21 116/78/21 152/79/21 159/80/21
f 136/77/21 124/78/21 156/79/21 163/80/21
f 116/82/23 118/81/23 151/84/23 152/83/23
f 118/89/24 133/90/24 160/91/24 151/92/24
