# Blender v2.76 (sub 0) OBJ File: ''
# www.blender.org
o base_Cube
v 0.100000 0.268808 0.300813
v 0.100000 0.086617 0.000000
v 0.100000 0.000000 0.000000
v 0.100000 -0.000000 0.300813
v 0.100000 0.268808 0.699187
v 0.100000 -0.000000 0.699187
v 0.900000 0.268808 0.300813
v 0.900000 0.086617 0.000000
v 0.450000 0.268808 0.300813
v 0.450000 0.240702 0.254408
v 0.550000 0.240702 0.254408
v 0.550000 0.268808 0.300813
v 0.900000 0.000000 0.000000
v 0.900000 -0.000000 0.300813
v 0.100000 0.086617 1.000000
v 0.100000 -0.000000 1.000000
v 0.450000 0.268808 0.699187
v 0.900000 -0.000000 0.699187
v 0.900000 0.268808 0.699187
v 0.550000 0.268808 0.699187
v 0.900000 0.086617 1.000000
v 0.900000 -0.000000 1.000000
v 0.550000 0.236596 0.752371
v 0.450000 0.236596 0.752371
v 0.450000 0.145753 0.752371
v 0.450000 0.145753 0.254408
v 0.550000 0.145753 0.752371
v 0.550000 0.145753 0.254408
vt 1.000000 0.349593
vt 0.902510 0.500000
vt 0.856161 0.500000
vt 0.856161 0.349593
vt 1.000000 0.150407
vt 0.856161 0.150407
vt 0.010143 0.301759
vt 0.010143 0.004581
vt 0.855957 0.004581
vt 0.855957 0.301759
vt 0.485913 0.301759
vt 0.485913 0.255915
vt 0.380186 0.255915
vt 0.380186 0.301759
vt 0.190188 0.900000
vt 0.190188 0.500000
vt 0.236537 0.500000
vt 0.236537 0.900000
vt 0.428080 0.500000
vt 0.428080 0.349593
vt 0.902510 0.000000
vt 0.856161 0.000000
vt 0.855957 0.695319
vt 0.485913 0.695319
vt 0.428080 0.150407
vt 0.010143 0.695319
vt 0.380186 0.695319
vt 0.094532 0.003528
vt 0.291285 0.303077
vt 0.000992 0.303077
vt 0.000992 0.003528
vt 0.143839 0.900000
vt 0.143839 0.500000
vt 0.010143 0.992497
vt 0.380186 0.747860
vt 0.485913 0.747860
vt 0.855957 0.992497
vt 0.428080 0.000000
vt 0.291285 0.699777
vt 0.000992 0.699777
vt 0.094532 0.999326
vt 0.000992 0.999326
vt 0.368231 0.500000
vt 0.368231 0.748981
vt 0.317423 0.748981
vt 0.302384 0.725779
vt 0.302384 0.526592
vt 0.319620 0.500000
vt 0.421741 0.500000
vt 0.421741 0.748981
vt 0.472548 0.550000
vt 0.472548 0.500000
vt 0.521158 0.500000
vt 0.521158 0.550000
vt 0.421741 0.550000
vt 0.285147 0.500000
vt 0.287344 0.748981
vt 0.236537 0.748981
vn -1.000000 -0.000000 0.000000
vn 0.000000 0.855300 -0.518100
vn 0.000000 0.000000 -1.000000
vn 0.000000 -1.000000 -0.000000
vn 0.000000 1.000000 0.000000
vn 1.000000 0.000000 0.000000
vn 0.000000 0.000000 1.000000
vn 0.000000 0.855300 0.518100
s 1
f 1/1/1 2/2/1 3/3/1 4/4/1
f 5/5/1 1/1/1 4/4/1 6/6/1
f 7/7/2 8/8/2 2/9/2 1/10/2 9/11/2 10/12/2 11/13/2 12/14/2
f 2/15/3 8/16/3 13/17/3 3/18/3
f 4/4/4 3/3/4 13/19/4 14/20/4
f 15/21/1 5/5/1 6/6/1 16/22/1
f 9/11/5 1/10/5 5/23/5 17/24/5
f 6/6/4 4/4/4 14/20/4 18/25/4
f 19/26/5 7/7/5 12/14/5 20/27/5
f 8/28/6 7/29/6 14/30/6 13/31/6
f 21/16/7 15/15/7 16/32/7 22/33/7
f 21/34/8 19/26/8 20/27/8 23/35/8 24/36/8 17/24/8 5/23/8 15/37/8
f 16/22/4 6/6/4 18/25/4 22/38/4
f 7/29/6 19/39/6 18/40/6 14/30/6
f 19/39/6 21/41/6 22/42/6 18/40/6
f 25/43/6 26/44/6 10/45/6 9/46/6 17/47/6 24/48/6
f 27/49/5 28/50/5 26/44/5 25/43/5
f 24/51/3 23/52/3 27/53/3 25/54/3
f 11/52/7 10/51/7 26/55/7 28/49/7
f 23/56/1 20/47/1 12/46/1 11/57/1 28/58/1 27/17/1
o handle_Cube.003
v 0.450000 1.199101 0.550000
v 0.450000 1.199101 0.450000
v 0.450000 0.126832 0.450000
v 0.450000 0.126832 0.550000
v 0.550000 1.199101 0.450000
v 0.550000 0.126832 0.450000
v 0.550000 1.199101 0.550000
v 0.550000 0.126832 0.550000
v 0.550000 1.726832 0.550000
v 0.550000 1.726832 0.450000
v 0.450000 1.726832 0.450000
v 0.450000 1.726832 0.550000
v 0.550000 1.339384 0.550000
v 0.450000 1.339384 0.550000
v 0.550000 1.339384 0.450000
v 0.450000 1.339384 0.450000
v 0.475930 1.290118 0.476540
v 0.475930 1.248367 0.423460
v 0.524070 1.248367 0.423460
v 0.524070 1.290118 0.476540
v 0.524070 1.356508 0.418937
v 0.475930 1.356508 0.418937
vt 0.200000 0.329832
vt 0.400000 0.329832
vt 0.400000 1.000000
vt 0.200001 1.000000
vt 0.600000 0.649818
vt 0.400000 0.649818
vt 0.400000 0.000000
vt 0.600000 0.000000
vt 0.000000 0.329832
vt 0.000000 1.000000
vt 0.800000 0.506193
vt 0.600000 0.506193
vt 0.800000 0.000000
vt 1.000000 0.000000
vt 1.000000 0.062500
vt 0.800000 0.062500
vt 0.800000 0.755323
vt 0.800000 0.796283
vt 0.600000 0.796283
vt 0.600000 0.755323
vt 0.800000 0.572418
vt 0.600000 0.572418
vt 0.000000 0.242155
vt 0.200000 0.242155
vt 0.600000 0.734832
vt 0.548140 0.700919
vt 0.548140 0.683731
vt 0.400000 0.242155
vt 0.200000 0.000000
vt 0.600000 0.969634
vt 0.400000 0.969634
vt 0.400000 0.734832
vt 0.000000 0.000000
vt 0.451860 0.683731
vt 0.451860 0.700919
vt 0.896280 0.062500
vt 0.896280 0.117435
vt 0.800000 0.117435
vn -1.000000 0.000000 0.000000
vn 0.000000 0.000000 -1.000000
vn 1.000000 0.000000 0.000000
vn 0.000000 -0.000000 1.000000
vn 0.000000 -1.000000 -0.000000
vn 0.000000 1.000000 0.000000
vn -0.000000 0.279900 -0.960000
vn 0.000000 -0.474300 -0.880400
vn 0.000000 0.655400 0.755300
s 1
f 29/59/9 30/60/9 31/61/9 32/62/9
f 30/63/10 33/64/10 34/65/10 31/66/10
f 33/67/11 35/59/11 36/62/11 34/68/11
f 35/69/12 29/70/12 32/66/12 36/71/12
f 32/72/13 31/73/13 34/74/13 36/71/13
f 37/75/14 38/76/14 39/77/14 40/78/14
f 41/79/12 42/80/12 29/70/12 35/69/12
f 43/81/11 41/82/11 35/59/11 33/67/11
f 30/63/15 44/83/15 45/84/15 46/85/15
f 42/82/9 44/86/9 30/60/9 29/59/9
f 40/87/9 39/65/9 44/86/9 42/82/9
f 39/88/10 38/89/10 43/90/10 44/83/10
f 38/91/11 37/87/11 41/82/11 43/81/11
f 37/75/12 40/78/12 42/80/12 41/79/12
f 33/64/16 30/63/16 46/85/16 47/92/16
f 43/90/15 33/64/15 47/92/15 48/93/15
f 44/83/16 43/90/16 48/93/16 45/84/16
f 45/74/17 48/94/17 49/95/17 50/96/17
o stopper_Cube.004
v 0.524070 1.248367 0.423460
v 0.475930 1.248367 0.423460
v 0.475930 1.345713 0.352274
v 0.524070 1.345713 0.352274
v 0.475930 1.356508 0.418937
v 0.524070 1.356508 0.418937
v 0.524070 1.694579 0.364194
v 0.475930 1.694579 0.364194
v 0.475930 1.290118 0.476540
v 0.524070 1.290118 0.476540
v 0.524070 1.683784 0.297531
v 0.475930 1.683784 0.297531
vt 0.592180 0.000000
vt 0.728120 0.000000
vt 0.728120 0.258740
vt 0.592181 0.258740
vt 0.864060 0.000000
vt 0.864060 0.755620
vt 0.728121 0.755620
vt 0.120115 0.000000
vt 0.296090 0.057413
vt 0.189537 0.232564
vt 0.000000 0.248980
vt 0.592180 0.942586
vt 0.416205 1.000000
vt 0.296090 0.751020
vt 0.485627 0.767435
vt 1.000000 0.000000
vt 1.000000 0.148998
vt 0.864060 0.148998
vt 0.402643 0.000000
vt 0.592180 0.016415
vt 0.728120 0.993515
vt 0.592181 0.993515
vt 0.296090 0.983584
vt 0.106553 1.000000
vn 0.000000 -0.590300 -0.807200
vn 0.000000 0.159800 0.987100
vn -1.000000 -0.000000 0.000000
vn 1.000000 0.000000 0.000000
vn 0.000000 0.987100 -0.159900
vn 0.000000 -0.159800 -0.987100
s 1
f 51/97/18 52/98/18 53/99/18 54/100/18
f 55/98/19 56/101/19 57/102/19 58/103/19
f 52/104/20 59/105/20 55/106/20 53/107/20
f 60/108/21 51/109/21 54/110/21 56/111/21
f 58/101/22 57/112/22 61/113/22 62/114/22
f 56/111/21 54/110/21 61/115/21 57/116/21
f 54/100/23 53/99/23 62/117/23 61/118/23
f 53/107/20 55/106/20 58/119/20 62/120/20
