# Blender v2.76 (sub 0) OBJ File: ''
# www.blender.org
mtllib switch_button.mtl
o switch_Cube.002
v 0.250000 0.254220 0.120234
v 0.250000 0.752317 0.076656
v 0.250000 0.247683 0.045519
v 0.250000 0.745780 0.001941
v 0.750000 0.254220 0.120234
v 0.750000 0.752317 0.076656
v 0.750000 0.247683 0.045519
v 0.750000 0.745780 0.001941
vt 0.000000 0.000000
vt 1.000000 0.000000
vt 1.000000 1.000000
vt 0.000000 1.000000
vn -1.000000 0.000000 0.000000
vn 0.000000 -0.087200 -0.996200
vn 1.000000 0.000000 0.000000
vn 0.000000 0.087200 0.996200
vn 0.000000 -0.996200 0.087200
vn 0.000000 0.996200 -0.087200
usemtl None
s off
f 2/1/1 4/2/1 3/3/1 1/4/1
f 4/1/2 8/2/2 7/3/2 3/4/2
f 8/1/3 6/2/3 5/3/3 7/4/3
f 6/1/4 2/2/4 1/3/4 5/4/4
f 1/1/5 3/2/5 7/3/5 5/4/5
f 6/1/6 8/2/6 4/3/6 2/4/6
o plate_Cube.001
v 0.100000 0.100000 0.050000
v 0.100000 0.900000 0.050000
v 0.100000 0.100000 0.000000
v 0.100000 0.900000 0.000000
v 0.900000 0.100000 0.050000
v 0.900000 0.900000 0.050000
v 0.900000 0.100000 0.000000
v 0.900000 0.900000 0.000000
vt 0.000000 0.000000
vt 1.000000 0.000000
vt 1.000000 1.000000
vt 0.000000 1.000000
vn -1.000000 0.000000 0.000000
vn 0.000000 0.000000 -1.000000
vn 1.000000 0.000000 0.000000
vn 0.000000 0.000000 1.000000
vn 0.000000 -1.000000 0.000000
vn 0.000000 1.000000 0.000000
usemtl None
s off
f 10/5/7 12/6/7 11/7/7 9/8/7
f 12/5/8 16/6/8 15/7/8 11/8/8
f 16/5/9 14/6/9 13/7/9 15/8/9
f 14/5/10 10/6/10 9/7/10 13/8/10
f 9/5/11 11/6/11 15/7/11 13/8/11
f 14/5/12 16/6/12 12/7/12 10/8/12
